<svg width="24" height="24" viewBox="0 0 24 24" fill="none" xmlns="http://www.w3.org/2000/svg">
<path d="M20.1554 4.50037C20.1675 4.53546 20.1988 4.53731 20.229 4.54433C20.7708 4.64296 20.9748 5.04267 20.9973 5.54174C21.0208 6.07776 20.9111 6.6038 20.8363 7.13022C20.6411 8.50739 20.4334 9.88234 20.2239 11.2573C20.0423 12.4505 19.8582 13.6433 19.6623 14.8339C19.5149 15.7353 19.4133 16.6441 19.2719 17.5443C19.2082 17.9507 19.1246 18.3533 18.936 18.7264C18.5943 19.4047 18.0437 19.6393 17.3178 19.4209C16.8423 19.278 16.4199 19.0301 16.0218 18.7431C14.6006 17.718 13.1161 16.7874 11.6658 15.8059C11.5137 15.7028 11.3598 15.602 11.2136 15.4908C10.7576 15.145 10.6678 14.6023 10.9819 14.1217C11.1311 13.8934 11.3325 13.7154 11.5307 13.5307C12.1335 12.9736 12.7401 12.4202 13.3374 11.8576C14.1764 11.068 15.0111 10.2745 15.8417 9.4771C16.0559 9.27539 16.2569 9.06007 16.4435 8.83247C16.5474 8.70355 16.6089 8.5676 16.5076 8.41393C16.4174 8.27687 16.2498 8.24954 16.0623 8.35371C15.5836 8.61784 15.1372 8.92963 14.6883 9.23809C13.0185 10.3866 11.3543 11.5436 9.68522 12.6936C9.22118 13.0135 8.74537 13.3142 8.20658 13.4993C7.73099 13.67 7.21281 13.6803 6.73088 13.5284C5.76084 13.2296 4.75543 13.0589 3.79644 12.718C3.63968 12.6656 3.48785 12.5995 3.34272 12.5203C2.93761 12.2891 2.889 11.933 3.20756 11.5968C3.39833 11.3951 3.63955 11.2769 3.88666 11.169C6.73162 9.93073 9.56994 8.67843 12.4241 7.46232C14.5855 6.54137 16.7551 5.6389 18.9426 4.78186C19.182 4.68803 19.4214 4.59716 19.6792 4.56021C19.7285 4.55356 19.793 4.56021 19.8239 4.5L20.1554 4.50037Z" fill="#21262E"/>
</svg>
